<?xml version="1.0" encoding="UTF-8" standalone="no"?>
<!-- Created with Inkscape (http://www.inkscape.org/) -->

<svg
   version="1.1"
   id="svg1"
   width="252.00002"
   height="252"
   viewBox="0 0 252.00002 252"
   xmlns="http://www.w3.org/2000/svg"
   xmlns:svg="http://www.w3.org/2000/svg">
  <defs
     id="defs1" />
  <g
     id="g1"
     transform="translate(-0.5329856)">
    <path
       style="fill:#d9e5f4"
       d="M 0.5329856,126 V 2.9e-7 h 126.0000044 126 V 126 252 h -126 H 0.5329856 Z"
       id="path110" />
    <path
       style="fill:#b5c7db"
       d="M 0.5329856,126 V 2.9e-7 h 126.0000044 126 V 126 252 h -126 H 0.5329856 Z M 144.04475,216.95386 c -4.94353,-2.77286 -12.27017,-7.55532 -16.28142,-10.62769 -8.99577,-6.89021 -21.61851,-20.28037 -26.03928,-27.62238 -6.439454,-10.69463 -12.907071,-28.1092 -7.331753,-19.74131 14.289603,21.447 34.202783,34.42456 62.415393,40.67657 10.66518,2.36344 33.40248,2.14129 46.2253,-0.45163 10.23254,-2.06914 19.20214,-4.888 11,-3.45695 -2.2,0.38384 -9.625,0.65604 -16.5,0.60489 -14.35362,-0.1068 -25.35475,-2.11603 -34.64167,-6.32692 -6.59971,-2.99245 -15.80498,-8.89512 -15.04977,-9.65033 0.24701,-0.24701 3.99113,0.51277 8.32027,1.6884 9.66771,2.62538 30.27582,3.80012 35.63528,2.03134 1.96675,-0.64908 4.09095,-1.80075 4.72046,-2.55926 1.82716,-2.2016 -1.256,-3.16975 -14.01665,-4.40142 -24.6976,-2.38384 -39.74285,-8.90958 -54.46042,-23.62172 -8.84754,-8.84428 -14.27093,-17.86274 -16.92232,-28.13979 -4.41485,-17.11244 0.42606,-29.625726 15.64609,-40.44365 5.65911,-4.02232 6.60439,-5.014508 4.26873,-4.480528 -6.37806,1.458152 -12.27576,5.192246 -19.16277,12.132793 -5.91496,5.960944 -8.17965,9.264325 -13.000001,18.962395 -3.210478,6.45918 -6.287234,11.66953 -6.837234,11.57856 -0.569769,-0.0942 -0.942429,-3.14391 -0.866187,-7.08845 0.315746,-16.335743 12.293172,-31.347466 35.712102,-44.759229 5.03475,-2.883346 8.41399,-5.245846 7.50942,-5.25 -2.9217,-0.01341 -15.18786,4.138133 -21.35533,7.227826 -9.06054,4.539021 -21.460754,17.674392 -29.312892,31.050743 -3.472089,5.9148 -6.734589,10.49356 -7.25,10.17502 -2.009124,-1.24171 -0.816985,-7.74974 2.699354,-14.736103 C 87.92841,82.32249 103.10466,68.18403 122.91415,58.971696 c 10.08738,-4.691099 15.41582,-6.506244 28.11884,-9.578745 l 10,-2.418718 -9.5,0.550825 C 119.81158,49.364316 93.468787,60.323458 74.020323,79.771921 57.675584,96.11666 49.532985,115.03475 49.532985,136.66453 c 0,16.22015 3.767233,31.43709 10.719975,43.30104 3.202716,5.46503 3.985389,4.04004 1.727289,-3.14482 -1.963937,-6.24888 -3.298395,-33.36962 -1.719613,-34.9484 0.645171,-0.64517 1.212618,0.96234 1.648323,4.66951 0.812057,6.90933 6.407402,22.26892 11.90909,32.69122 2.24516,4.2532 4.207289,7.6079 4.360287,7.45491 0.152997,-0.153 -1.271025,-5.05573 -3.164495,-10.89497 -3.71466,-11.45556 -5.141069,-20.02638 -4.053845,-24.35823 0.917722,-3.65649 1.807021,-2.47813 5.597576,7.41707 6.168108,16.10178 21.035404,34.32349 36.664708,44.93715 7.60716,5.16592 20.40902,11.64298 30.2309,15.29522 10.71841,3.98561 10.8231,3.60858 0.59157,-2.13037 z M 58.71396,86.034279 c 19.902349,-30.25836 58.0681,-48.844718 95.89603,-46.700457 11.46993,0.650169 32.61125,5.506296 44.03371,10.114472 l 6.38929,2.57764 -3,-2.450147 c -4.76051,-3.887985 -18.20492,-10.241976 -28,-13.233141 -8.33697,-2.545893 -10.2524,-2.745824 -26,-2.713852 -18.53208,0.03763 -23.80369,0.992672 -40.03952,7.25387 C 84.119842,50.089309 60.446619,72.788684 52.075844,94.5 c -0.861425,2.234282 -0.990555,3.154949 -0.292527,2.085649 0.687318,-1.052893 3.806107,-5.80101 6.930643,-10.55137 z"
       id="path109" />
    <path
       style="fill:#2b567d;fill-opacity:1;stroke-width:0.532993"
       d="M 0.53299284,125.78631 V 0 H 126.3193 252.10561 V 125.78631 251.57262 H 126.3193 0.53299284 Z M 151.60981,221.2386 c -0.27849,-0.26753 -3.26458,-2.09316 -6.63576,-4.05696 -13.42457,-7.82016 -19.49408,-12.43212 -28.86705,-21.93481 -7.70959,-7.81628 -10.05527,-10.5556 -13.38245,-15.62824 -4.063663,-6.19547 -10.704871,-20.7763 -9.851699,-21.62948 0.156332,-0.15633 1.79916,1.82815 3.650735,4.40996 3.975624,5.54355 14.132674,15.89785 19.393804,19.77043 12.95548,9.53619 33.01679,17.27564 48.61373,18.75468 15.49578,1.46945 33.39627,0.13127 47.06704,-3.51856 6.51317,-1.73888 7.32911,-2.48755 2.12034,-1.94552 -2.19219,0.22812 -9.26245,0.39118 -15.71166,0.36235 -17.06997,-0.0763 -26.68002,-1.93074 -37.3095,-7.19956 -5.31738,-2.63572 -12.82938,-7.61732 -11.81059,-7.83222 0.41822,-0.0882 2.64707,0.32104 4.95302,0.90948 2.30593,0.58844 6.47115,1.45879 9.25604,1.93412 6.47973,1.10595 25.02605,1.66543 28.03487,0.84572 2.91266,-0.79351 5.81017,-2.80302 5.81017,-4.02951 0,-1.45275 -2.82041,-2.2385 -11.58453,-3.22738 -24.69911,-2.78687 -36.58481,-6.89413 -49.45818,-17.09092 -12.32699,-9.76402 -21.11069,-22.24467 -24.54721,-34.87886 -1.76982,-6.50665 -1.79479,-15.85529 -0.0558,-20.88823 2.43181,-7.038023 6.60855,-12.278515 14.87873,-18.668103 7.57878,-5.8554 7.8915,-6.625165 1.836,-4.519267 -5.11686,1.779466 -10.20121,5.292763 -15.97372,11.037855 -5.76189,5.734529 -8.55363,9.784095 -14.141093,20.512415 -4.424773,8.49586 -5.491884,10.23345 -5.983053,9.74228 -0.65751,-0.65751 -0.244974,-10.93582 0.562164,-14.00623 2.279594,-8.671748 8.107592,-17.234352 16.789352,-24.667247 3.88442,-3.325646 11.58791,-8.616596 20.99017,-14.416566 2.53241,-1.562165 4.48112,-3.039733 4.33048,-3.283476 -0.36116,-0.584368 -5.23942,0.582727 -11.19634,2.678657 -11.46764,4.034868 -16.91574,7.533422 -25.150101,16.150403 -5.718518,5.98423 -9.501344,10.957405 -15.147769,19.914339 -6.330286,10.04173 -7.81643,11.22887 -7.255695,5.79585 0.886431,-8.58866 9.779789,-23.146877 20.262405,-33.169067 7.95401,-7.604641 15.33902,-12.594226 26.75817,-18.078776 8.92106,-4.284735 14.04964,-6.079348 27.44913,-9.605102 l 10.92635,-2.875005 -6.9289,0.299011 C 114.398,48.92906 81.104359,65.661451 62.60947,93.288698 53.417545,107.01939 49.512356,120.20923 49.546555,137.40893 c 0.03017,15.17451 2.890056,27.90907 8.896499,39.61453 3.646758,7.10686 5.805747,8.409 4.494686,2.71086 -1.652411,-7.18173 -2.166253,-11.10533 -2.772314,-21.16895 -0.566417,-9.40528 -0.36381,-17.39351 0.421245,-16.60846 0.148807,0.14881 0.72438,2.61382 1.27905,5.47778 1.114088,5.75249 2.766526,11.07451 5.938324,19.12557 3.426936,8.69869 10.545903,21.99239 10.545903,19.69303 0,-0.16182 -1.187759,-4.21232 -2.639466,-9.00112 -1.451702,-4.7888 -3.023951,-10.35277 -3.493886,-12.36437 -1.175739,-5.03289 -1.584875,-11.80964 -0.829544,-13.74016 0.57819,-1.47777 0.642922,-1.50418 1.306493,-0.53299 0.383984,0.562 1.715086,3.5402 2.958004,6.61824 5.611173,13.89585 13.182458,24.92717 24.911191,36.29546 8.79945,8.52903 16.53046,13.69731 30.5535,20.42539 10.44869,5.01316 22.63997,9.3468 20.49357,7.28486 z M 55.428884,91.512286 c 14.20614,-22.297367 32.046738,-36.859674 55.605196,-45.387487 15.78238,-5.712989 34.20547,-7.923426 49.39677,-5.92672 12.79532,1.681786 30.0587,6.127523 40.4778,10.424012 2.16106,0.89115 4.0345,1.514974 4.1632,1.386275 0.63125,-0.631254 -7.40639,-5.687158 -14.52691,-9.137836 -8.79614,-4.262701 -17.21404,-7.315742 -23.47288,-8.513258 -4.87884,-0.933475 -28.39787,-1.085618 -35.43681,-0.229236 -12.8611,1.564724 -29.84185,8.11417 -41.80179,16.122877 -15.429296,10.331883 -28.018432,24.071666 -35.219885,38.438978 -3.280237,6.544257 -3.944651,8.351252 -3.046518,8.285571 0.21986,-0.01608 1.957683,-2.474509 3.861827,-5.463176 z"
       id="path112" />
  </g>
</svg>
