<?xml version="1.0" encoding="UTF-8" standalone="no"?>
<!-- Created with Inkscape (http://www.inkscape.org/) -->

<svg
   version="1.1"
   id="svg1"
   width="880.04022"
   height="580.66663"
   viewBox="0 0 880.04022 580.66662"
   xml:space="preserve"
   xmlns:xlink="http://www.w3.org/1999/xlink"
   xmlns="http://www.w3.org/2000/svg"
   xmlns:svg="http://www.w3.org/2000/svg"><defs
     id="defs1"><linearGradient
       id="linearGradient848199"><stop
         style="stop-color:#1e4c76;stop-opacity:1"
         offset="0"
         id="stop848199" /><stop
         style="stop-color:#547797;stop-opacity:1"
         offset="1"
         id="stop848200" /></linearGradient><linearGradient
       xlink:href="#linearGradient848199"
       id="linearGradient848200"
       x1="-8.6857061"
       y1="527.79364"
       x2="826.54053"
       y2="-8.8758078"
       gradientUnits="userSpaceOnUse" /></defs><g
     id="g1"
     transform="translate(60.577286,-755.46326)"><g
       id="g848191"
       transform="translate(-26.115386,783.65801)"><path
         style="display:inline;fill:#dbe7f6"
         d="m -27.642833,551.04143 c -1.690522,-0.83679 -3.625333,-2.54389 -4.666667,-4.11745 l -1.778848,-2.68802 V 262.13858 -19.958789 l 1.789344,-2.703882 c 1.077889,-1.6288 2.950808,-3.266137 4.710483,-4.11798 l 2.921138,-1.414099 h 430.245703 430.2457 l 2.92114,1.414099 c 1.75967,0.851843 3.63259,2.48918 4.71048,4.11798 l 1.78934,2.703882 V 262.13858 544.23596 l -1.78934,2.70388 c -1.07789,1.6288 -2.95081,3.26613 -4.71048,4.11798 l -2.92114,1.4141 -430.28952,-5.3e-4 -430.289515,-5.3e-4 z"
         id="path848198" /><path
         style="display:inline;fill:#708eac"
         d="m -26.755015,551.21189 c -3.227317,-1.48951 -5.258398,-3.60002 -6.634848,-6.89433 l -1.031819,-2.46949 V 262.13858 -17.570909 l 1.031819,-2.469489 c 1.37645,-3.294308 3.407531,-5.404821 6.634848,-6.894324 l 2.666667,-1.230746 H 405.57832 835.24498 l 2.66667,1.230746 c 3.22732,1.489503 5.2584,3.600016 6.63485,6.894324 l 1.03182,2.469489 -0.0146,279.854749 -0.0146,279.85474 -1.23075,2.66667 c -1.4895,3.22732 -3.60002,5.2584 -6.89432,6.63485 l -2.46949,1.03182 -429.52142,-0.0146 -429.521408,-0.0146 z M 423.22527,370.9508 c 7.33962,-4.15703 7.4196,-11.75982 0.20624,-19.60426 l -1.34136,-1.4587 2.57742,-1.07666 c 5.4346,-2.27019 9.55854,-8.51234 9.5709,-14.48687 l 0.007,-3.1476 2.16667,-0.55847 c 1.49811,-0.38614 2.2324,-1.00916 2.3797,-2.01906 l 0.21304,-1.4606 h -3.61245 c -1.98685,0 -5.83476,-0.18785 -8.55092,-0.41745 l -4.93847,-0.41745 -2.97644,2.2702 c -3.77245,2.87735 -6.39061,6.68632 -7.37583,10.73059 l -0.77124,3.1659 1.31676,2.23174 c 0.93794,1.58969 1.13509,2.55638 0.68527,3.36015 l -0.63148,1.1284 3.69163,3.98741 c 2.14456,2.31638 4.02097,5.08664 4.4775,6.61041 l 0.78588,2.623 -1.10576,1.6876 c -1.64503,2.51063 -3.98438,3.78372 -7.02993,3.82576 -5.24349,0.0724 -7.99397,-3.40758 -5.43208,-6.87272 l 1.43002,-1.9342 -1.18919,-0.45634 c -2.16753,-0.83175 -5.44753,-0.47337 -6.79045,0.74196 l -1.3241,1.19829 -0.45736,-2.43791 c -0.87206,-4.64848 2.43884,-21.96274 6.37898,-33.35867 l 1.383,-4 -2.03856,-1.83333 c -3.56133,-3.20281 -6.56552,-1.82029 -16.35085,7.52461 l -3.33334,3.1833 -5.51435,0.4667 -5.51436,0.4667 -0.65231,1.21885 c -0.35877,0.67037 -0.65231,1.71494 -0.65231,2.32127 v 1.10243 l 2.83333,-0.44063 c 1.55834,-0.24235 3.39251,-0.59978 4.07595,-0.7943 0.74417,-0.2118 -0.60063,1.81085 -3.35259,5.04248 -2.52736,2.96788 -5.09934,6.2496 -5.71552,7.2927 l -1.12032,1.89656 1.01338,1.4468 c 0.55736,0.79575 1.86406,1.88671 2.90379,2.42438 l 1.8904,0.97756 1.72963,-3.48137 c 0.95129,-1.91476 3.7875,-6.33138 6.30268,-9.81471 l 4.57307,-6.33333 3.81047,-0.34486 c 4.73755,-0.42875 4.46905,-1.08554 2.64339,6.46622 -0.85429,3.53371 -1.88052,8.8152 -2.28053,11.73666 l -0.72727,5.31174 1.85169,1.93276 c 1.01844,1.06301 2.76297,2.16918 3.87674,2.45814 l 2.02504,0.52539 -0.183,1.95697 c -0.26429,2.82616 2.06802,6.15182 5.36344,7.64776 l 2.81956,1.27993 6.66667,0.004 6.66667,0.004 z M 419.124,342.75498 c 0.76792,-4.73211 6.18917,-13.43711 7.532,-12.09427 1.77999,1.77999 -3.64989,13.96518 -6.40357,14.37026 l -1.5344,0.22572 z m -26.87902,-13.4811 c 0,-0.76191 5.24452,-5.77968 5.63389,-5.39031 0.90535,0.90536 -0.54324,5.16356 -1.87847,5.52186 -2.03654,0.5465 -3.75542,0.48629 -3.75542,-0.13155 z m 246.20656,31.03137 c 0.61238,-6.38902 6.86934,-27.27984 11.00849,-36.75525 l 1.71321,-3.92191 -1.83464,-1.57809 c -1.00905,-0.86794 -2.68351,-1.57808 -3.72102,-1.57808 h -1.88639 l -3.91246,4.18243 c -2.15186,2.30035 -5.39079,6.19581 -7.19762,8.6566 -4.0738,5.54823 -4.10199,5.51131 -1.6823,-2.20285 l 1.97702,-6.30285 -1.70593,-1.5 c -0.93827,-0.825 -2.56403,-1.5 -3.61282,-1.5 h -1.90689 l -3.78558,4.16667 c -6.96756,7.66895 -16.99296,22.05864 -16.99296,24.39038 0,0.85527 3.8689,4.10983 4.88449,4.10889 0.4302,-4e-4 1.81324,-2.29391 3.07342,-5.09669 3.29711,-7.33315 12.70876,-21.96238 12.70876,-19.7542 0,0.32121 -1.18759,4.01923 -2.63908,8.21782 -1.4515,4.19859 -2.83708,8.89156 -3.07908,10.42884 l -0.44001,2.79504 2.24575,1.36913 c 3.25453,1.98415 3.1675,2.04987 8.11479,-6.12819 4.63521,-7.66218 12.60133,-19.24955 12.97609,-18.87478 0.1145,0.1145 -0.66765,2.42118 -1.73812,5.12597 -4.94358,12.49109 -9.88175,30.58075 -8.85089,32.4228 0.62134,1.11028 4.12252,3.48448 5.14748,3.49059 0.41771,0.002 0.90992,-1.80047 1.13629,-4.16227 z m -65.8989,-0.66667 c 0.22747,-1.19166 1.64455,-5.65232 3.14906,-9.91257 l 2.73547,-7.7459 4.16332,-0.38878 c 24.49082,-2.28699 29.65433,-18.2855 7.64449,-23.68552 l -5.66666,-1.39029 -4.66667,0.62305 c -2.56667,0.34268 -6.07465,0.63287 -7.79553,0.64487 l -3.12886,0.0218 -1.03781,1.48167 c -0.57079,0.81492 -1.0378,2.04744 -1.0378,2.73894 v 1.25727 l 1.55685,-0.39075 c 0.85627,-0.21491 3.73362,-0.59305 6.39411,-0.84032 l 4.83726,-0.44957 -1.97884,3.93471 c -5.71798,11.36963 -13.21913,30.90533 -12.54315,32.6669 1.27598,3.32516 6.80843,4.40129 7.37476,1.43448 z m 8.35901,-23.58077 c 0,-0.22776 1.68031,-3.64813 3.73401,-7.60082 l 3.73402,-7.1867 1.80493,0.51764 c 3.07655,0.88235 5.98781,2.63605 6.75466,4.06893 l 0.73381,1.37113 -1.06424,1.62425 c -2.19191,3.34527 -15.69719,9.54467 -15.69719,7.20557 z m -39.39264,22.46754 c 13.22948,-6.75094 18.89469,-19.80002 10.36251,-23.86873 -2.82272,-1.34606 -2.86765,-1.78914 -0.2897,-2.85696 7.03813,-2.91529 6.95416,-10.05243 -0.14196,-12.06624 -1.57935,-0.44821 -3.55868,-1.5154 -4.39852,-2.37154 -1.84998,-1.8859 -1.84451,-1.88559 -3.95777,-0.2233 -0.93229,0.73334 -2.47961,1.33501 -3.43849,1.33705 -5.20955,0.0111 -9.55909,2.62254 -8.98528,5.3947 l 0.35845,1.73174 2.41599,-1.23174 c 1.3288,-0.67746 3.07616,-1.23175 3.88303,-1.23175 h 1.46703 l -6.88265,16 c -3.78545,8.8 -6.55905,16 -6.16354,16 0.3955,0 0.54698,0.17212 0.33661,0.38249 -0.44855,0.44855 -4.32158,-1.42223 -6.01049,-2.90324 -1.38001,-1.21013 -1.67657,-1.00278 -2.45681,1.71774 -0.79439,2.7699 0.20443,3.95805 4.6604,5.54377 l 3.63383,1.29314 5.66667,-0.23306 5.66666,-0.23306 z m -8.94037,-3.48762 c 0.2559,-0.8612 1.50726,-4.11581 2.78079,-7.23248 1.27354,-3.11667 2.93542,-7.24167 3.69306,-9.16667 l 1.37754,-3.5 h 1.94058 c 11.48776,0 4.48613,16.90125 -8.69144,20.98028 l -1.56581,0.48468 z m 10.05004,-24.76069 c 0.25061,-0.80948 1.17997,-2.91282 2.06526,-4.67409 l 1.60962,-3.20229 1.47071,0.45055 c 5.14481,1.57612 3.75322,5.71024 -2.6574,7.89456 l -2.94383,1.00306 z M 246.57832,351.8938 c -27.58723,-13.1974 -48.93717,-34.8127 -57.25006,-57.96162 -2.44406,-6.80598 -2.19956,-7.12821 1.21116,-1.59619 21.98562,35.65961 79.7519,51.81513 123.37223,34.50356 l 2.66667,-1.05831 -2.66667,0.34469 c -12.28438,1.58788 -16.33197,1.81984 -25.63715,1.46922 -17.43356,-0.65688 -30.10785,-4.56898 -41.90803,-12.93549 -5.22138,-3.70203 -5.0439,-3.90958 1.58749,-1.85646 10.37306,3.21156 15.37763,3.96818 26.29102,3.97483 l 10.33334,0.006 4,-1.65739 c 8.78371,-3.63951 5.28811,-5.89333 -10.45902,-6.74357 -32.43979,-1.75153 -58.13563,-18.50362 -69.25981,-45.15311 -8.71781,-20.88471 -2.89399,-37.12922 17.72454,-49.43945 l 4.66095,-2.78281 -2.95936,0.35209 c -14.29166,1.70032 -29.00757,16.52211 -37.35236,37.6211 -3.04734,7.70488 -4.65705,8.08248 -4.67807,1.09736 -0.0564,-18.73133 14.06697,-35.92479 40.65646,-49.4944 4.58333,-2.33905 7.43333,-4.08724 6.33333,-3.88488 -1.1,0.20236 -3.35,0.57106 -5,0.81932 -21.12503,3.17854 -37.80154,16.51512 -50.79259,40.61998 -4.87264,9.04117 -6.21254,9.97529 -6.19785,4.32089 l 0.01,-3.67912 2.716,-5.65422 c 13.29837,-27.68471 41.32413,-46.58662 78.54769,-52.97632 8.86656,-1.52202 7.8934,-1.88806 -3.94947,-1.48555 -77.29939,2.62719 -125.55091,67.18012 -95.74617,128.09326 5.39273,11.02134 9.03603,13.15956 5.51376,3.23598 -3.24428,-9.1404 -4.64066,-26.9843 -2.80584,-35.85492 l 0.55158,-2.66666 0.0813,2.66666 c 0.27627,9.0577 9.59762,33.73911 16.40611,43.44073 l 1.79607,2.55927 -0.40192,-2.35763 c -0.22106,-1.29669 -1.31862,-4.73822 -2.43901,-7.64783 -4.56934,-11.8664 -6.60054,-24.63204 -4.53378,-28.49381 l 0.75547,-1.41161 2.45343,6.97222 c 10.52423,29.90813 36.11895,52.96608 72.03562,64.89594 11.52533,3.82818 12.64848,3.77581 4.33334,-0.20206 z m 217.5,-1.10197 c 0,-2.94235 4.92846,-15.6598 10.00451,-25.81571 5.22798,-10.45988 5.26374,-10.65642 2.13767,-11.74618 l -2.02695,-0.70659 -1.31692,1.31692 c -3.13167,3.13167 -15.29831,30.72402 -15.29831,34.69456 0,0.73998 0.92383,1.85329 2.16666,2.61106 2.99181,1.82414 4.33334,1.71453 4.33334,-0.35406 z m -17.16667,-0.60013 c 0,-2.107 3.61653,-12.32407 6.11755,-17.28271 l 1.96518,-3.89626 -1.20803,-0.91587 c -2.19177,-1.66169 -4.6342,-1.17602 -6.07694,1.20839 -1.9654,3.24822 -6.2409,14.37276 -6.62528,17.23851 l -0.33723,2.51423 2.24904,1.37114 c 2.9408,1.79287 3.91571,1.73376 3.91571,-0.23743 z m 39.53311,0.52221 c 5.14644,-2.63247 10.29384,-7.99407 9.54591,-9.94313 l -0.3788,-0.98715 -4.17835,3.36695 c -6.34953,5.11651 -10.0478,5.64488 -8.78899,1.25568 l 0.60886,-2.12299 2.80511,-0.82825 c 8.79395,-2.59654 12.81647,-7.64067 9.47788,-11.88501 -5.24764,-6.67128 -16.22885,0.77524 -19.33,13.10796 -1.65403,6.57779 4.16307,11.14353 10.23838,8.03594 z m -0.86644,-13.11421 c 0,-1.09656 5.33376,-7.34957 5.83855,-6.84479 0.1875,0.18751 -0.0311,1.23907 -0.48581,2.33681 -0.95589,2.30772 -5.35274,6.01068 -5.35274,4.50798 z M 318.02276,325.36081 c -0.24444,-0.24445 -0.64444,-0.24445 -0.88889,0 -0.24444,0.24444 -0.0444,0.44444 0.44445,0.44444 0.48889,0 0.68889,-0.2 0.44444,-0.44444 z m 139.25253,-1.85859 c 1.99461,-1.99462 2.06239,-3.27094 0.26893,-5.06441 -3.20864,-3.20863 -8.57719,2.11367 -5.52924,5.48161 1.51233,1.67111 3.31497,1.52814 5.26031,-0.4172 z M 564.4165,282.16081 c 12.99383,-2.75351 22.56146,-11.91493 25.84305,-24.74585 l 1.31877,-5.15633 v -35.22669 -35.22669 h -10.33334 -10.33333 l -0.0163,18.16667 c -0.0218,24.25874 -0.91048,27.52825 -8.41687,30.96479 l -3.66933,1.67988 -4.52243,-0.25554 -4.52242,-0.25554 -2.65547,-1.75731 c -1.4605,-0.96651 -3.22735,-2.90907 -3.92632,-4.31679 l -1.27086,-2.55949 -0.19359,-20.83334 -0.19358,-20.83333 h -10.63975 -10.63975 l 0.0233,18.16667 c 0.0272,21.2514 0.68097,26.28308 4.3928,33.80957 8.54476,17.32622 30.16042,23.50776 43.85801,12.54231 l 2.60739,-2.08733 -0.42825,4.58607 c -1.24643,13.34778 -15.54294,18.23495 -34.18048,11.68438 l -3.60606,-1.26742 v 10.57128 10.57129 l 1.44326,0.45807 c 6.88485,2.18516 22.70275,2.88008 30.06159,1.32067 z m -79.07307,-32.51736 c 10.1901,-3.54376 17.30658,-10.7063 20.70421,-20.8382 l 1.78848,-5.33333 0.2616,-20.83334 0.26159,-20.83333 h -10.32457 -10.32457 l -0.26274,19.83333 -0.26275,19.83334 -1.16833,2.65756 c -5.44544,12.38657 -23.55409,11.0253 -27.49423,-2.06679 l -0.9438,-3.13601 v -18.56072 -18.56071 h -10.33334 -10.33333 l 0.0116,19.16667 c 0.0129,21.3645 0.53117,25.55 4.05137,32.7184 7.27185,14.80812 27.12992,21.94823 44.36883,15.95313 z m 166.56822,1.47763 c 2.56667,-0.36177 6.24167,-0.9771 8.16667,-1.3674 l 3.5,-0.70963 v -9.69167 -9.69167 l -1.50019,0.37652 c -14.5022,3.63982 -32.61901,1.68563 -36.94424,-3.98504 -2.2257,-2.91804 -1.73495,-3.33908 2.24163,-1.92319 15.86609,5.64922 37.60081,-2.16802 41.28748,-14.84971 8.91599,-30.66994 -48.45984,-39.68149 -63.07998,-9.90745 -14.90866,30.36161 8.95469,57.01705 46.32863,51.74924 z m -21.33333,-41.61851 c -0.36667,-0.14014 -1.79167,-0.44296 -3.16667,-0.67293 -7.73303,-1.29339 2.26383,-7.67988 12.03311,-7.68734 7.91764,-0.006 11.46287,3.37665 7.39883,7.05962 l -1.40139,1.27 -7.09861,0.14272 c -3.90423,0.0785 -7.39861,0.0281 -7.76527,-0.11207 z m -260.17509,17.80268 0.17509,-23.83333 8.5,-0.18659 8.5,-0.18658 v -9.64675 -9.64675 h -8.72923 -8.72922 l 0.46986,-3.5 c 1.32276,-9.85336 6.3988,-13.94378 17.4885,-14.09278 l 5.4999,-0.0739 1e-4,-9.78036 9e-5,-9.78036 -2.0459,-0.44936 c -17.31933,-3.80396 -37.79875,10.30611 -40.99872,28.24762 l -0.90886,5.0958 -0.0233,35.83333 -0.0233,35.83333 h 10.32491 10.32491 z m 52.50842,-24.83333 v -48.66667 h -10.33333 -10.33334 v 48.66667 48.66666 h 10.33334 10.33333 z M 143.3561,236.69414 c -0.24445,-0.24445 -0.44445,-0.0445 -0.44445,0.44444 0,0.48889 0.2,0.68889 0.44445,0.44445 0.24444,-0.24445 0.24444,-0.64445 0,-0.88889 z m 10.64823,-18.88889 c 26.34317,-38.51468 76.31382,-55.7864 121.57399,-42.02049 3.48333,1.05945 8.28333,2.42189 10.66666,3.02764 4.53249,1.15197 13.81403,5.22523 17.50884,7.68385 l 2.15783,1.43588 -2.33333,-2.078 c -48.42248,-43.12364 -135.57416,-18.62144 -158.2492,44.49085 -2.46225,6.85328 -2.1892,6.71894 1.77462,-0.87306 1.91439,-3.66667 5.01965,-8.91667 6.90059,-11.66667 z m 78.24065,-7 c 0,-0.18333 -0.15,-0.33333 -0.33333,-0.33333 -0.18333,0 -0.33333,0.15 -0.33333,0.33333 0,0.18333 0.15,0.33333 0.33333,0.33333 0.18333,0 0.33333,-0.15 0.33333,-0.33333 z"
         id="path848197" /><path
         style="display:inline;fill:url(#linearGradient848200);fill-opacity:1"
         d="m -25.421682,551.47008 c -3.373321,-1.19328 -7.342556,-5.38898 -8.274978,-8.74711 -1.034796,-3.72682 -1.012979,-557.520349 0.02211,-561.248854 0.965656,-3.478397 5.443338,-7.956079 8.921735,-8.921734 1.938863,-0.538258 119.003453,-0.740709 429.869255,-0.743415 l 427.20478,-0.0037 3.09111,0.778349 c 4.18455,1.053683 8.33396,5.203084 9.38764,9.387637 l 0.77835,3.091107 -0.004,277.53812 c -0.003,201.23703 -0.20708,278.27064 -0.74341,280.20259 -0.96566,3.4784 -5.44334,7.95608 -8.92174,8.92173 -1.93939,0.53841 -119.13478,0.73275 -430.66447,0.71416 l -427.999995,-0.0255 z M 423.68715,370.99731 c 6.80884,-3.82678 7.30239,-10.6886 1.30401,-18.12949 l -2.09926,-2.6041 3.37964,-1.93019 c 5.19606,-2.9676 9.33832,-10.53722 8.38221,-15.31777 l -0.37543,-1.87718 h 1.54667 c 1.86656,0 4.2822,-2.40445 3.35109,-3.33556 -0.98608,-0.98609 -14.59716,-1.9825 -17.21339,-1.26012 -6.73749,1.86031 -12.87539,13.13399 -10.08674,18.52664 0.53036,1.02562 0.79308,2.5195 0.58381,3.31975 l -0.38049,1.455 3.71543,3.89525 c 5.38532,5.64594 5.99298,9.76254 1.8517,12.54418 -5.91996,3.97633 -13.3689,-0.42101 -9.66675,-5.70658 1.32894,-1.89733 1.04842,-2.18074 -2.56129,-2.58761 -2.13887,-0.24108 -3.12403,-0.047 -3.78122,0.74485 -4.17916,5.03557 -2.43365,-11.07507 3.36861,-31.09155 l 2.0762,-7.16243 -0.91848,-1.10751 c -0.50517,-0.60913 -1.91322,-1.52331 -3.12901,-2.03151 l -2.21052,-0.924 -2.27107,1.4036 c -1.24909,0.77198 -4.83448,3.74513 -7.96752,6.60699 l -5.69644,5.2034 -5.1076,0.32778 -5.10759,0.32779 -1.21437,1.49968 c -0.6679,0.82482 -1.21437,1.95519 -1.21437,2.51193 v 1.01225 l 4.11445,-0.46549 4.11445,-0.4655 -3.61445,3.91739 c -7.78917,8.44201 -8.61013,10.97724 -4.38825,13.55156 2.82363,1.72173 2.86995,1.70588 4.51077,-1.54351 5.27547,-10.44724 11.4666,-17.16667 15.81698,-17.16667 h 2.92393 l -0.48098,1.83334 c -1.38288,5.27101 -3.65045,17.49035 -3.65656,19.70424 l -0.007,2.53758 2.16666,1.98693 c 1.19167,1.09281 2.85447,2.16163 3.69512,2.37516 0.88144,0.2239 1.48391,0.8485 1.42323,1.4755 -0.61031,6.3064 4.24498,9.35589 14.95755,9.39449 l 7.24257,0.0261 z m -4.44509,-28.02539 c 0.6419,-3.18731 3.41384,-8.69951 5.48427,-10.90587 l 1.80873,-1.92747 0.22197,1.08772 c 0.65706,3.21967 -4.67091,13.91228 -6.93228,13.91228 h -1.01904 z m -26.69384,-14.45131 c 0.75446,-1.22073 5.69227,-4.80907 5.41994,-3.9387 -0.15316,0.4895 -0.45925,1.71501 -0.68019,2.72334 l -0.40172,1.83333 h -2.35998 c -1.29798,0 -2.18811,-0.27809 -1.97805,-0.61797 z m 245.69676,33.99636 c 0,-4.42927 7.58373,-30.14435 11.36059,-38.52174 l 1.86799,-4.14335 -1.28908,-1.6388 c -0.70899,-0.90133 -2.1974,-1.83829 -3.30758,-2.08213 l -2.0185,-0.44334 -2.17261,1.65714 c -1.19494,0.91142 -4.55796,4.66241 -7.47338,8.33553 -6.20288,7.81497 -6.12163,7.78603 -3.94212,1.40418 1.99743,-5.84869 1.78604,-7.29898 -1.30658,-8.96447 l -2.31284,-1.24554 -1.80137,0.96406 c -4.74335,2.53857 -21.45185,25.80539 -20.8343,29.01206 0.61663,3.2019 5.85526,4.98463 6.59578,2.24457 1.0937,-4.04689 11.25081,-21.68967 13.1697,-22.87561 0.26445,-0.16344 -0.80088,3.50148 -2.36741,8.14428 -1.68543,4.99519 -2.77748,9.38528 -2.67493,10.75333 l 0.17331,2.31188 2.24855,1.51019 c 2.82479,1.89721 2.50198,2.15548 7.45709,-5.96624 4.81907,-7.89877 11.32568,-17.35862 11.68935,-16.99496 0.13708,0.13709 -0.61232,2.4867 -1.66535,5.22137 -2.47014,6.41486 -6.41165,19.73828 -7.46268,25.22595 l -0.82101,4.28674 2.25184,1.87992 c 3.00571,2.50928 4.63554,2.48291 4.63554,-0.075 z m 3.33334,-37.71172 c 0,-0.18333 0.15,-0.33333 0.33333,-0.33333 0.18333,0 0.33333,0.15 0.33333,0.33333 0,0.18333 -0.15,0.33333 -0.33333,0.33333 -0.18333,0 -0.33333,-0.15 -0.33333,-0.33333 z m -68.50309,34.27994 c 0.28046,-1.62063 1.65587,-6.09661 3.05649,-9.94661 l 2.54657,-7 4.61668,-0.43125 c 9.75409,-0.91115 19.3842,-6.31557 21.57201,-12.10622 l 0.70683,-1.8708 -1.02166,-1.97567 c -1.41882,-2.74368 -5.79493,-5.74049 -10.23433,-7.00857 -2.05672,-0.58749 -5.18977,-1.48654 -6.96231,-1.9979 -2.22955,-0.64319 -3.60293,-0.7263 -4.45618,-0.26966 -0.67834,0.36304 -3.42808,0.68998 -6.11052,0.72653 -7.28989,0.0993 -11.54441,2.36448 -10.33936,5.50479 l 0.38707,1.00869 2.20423,-0.56211 c 1.21233,-0.30916 4.07781,-0.75438 6.36774,-0.98938 l 4.1635,-0.42727 -1.2856,2.19941 c -2.11459,3.61765 -9.02239,19.7103 -11.60815,27.04274 l -2.41326,6.84333 1.37887,1.37887 c 3.85307,3.85308 6.75206,3.80669 7.43138,-0.11892 z m 11.52124,-29.92415 c 4.06189,-7.94094 4.02558,-7.91313 7.98185,-6.11347 7.87582,3.58263 3.09045,9.89281 -9.87222,13.01791 l -1.87221,0.45136 z m -43.35149,29.67986 c 13.89904,-6.87046 20.04868,-21.61879 10.30406,-24.71161 -1.87289,-0.59443 -1.62603,-1.13436 1.27624,-2.79128 1.5223,-0.86909 3.04351,-2.46503 3.73145,-3.91475 l 1.16142,-2.44751 -0.72299,-1.58678 c -0.79492,-1.74466 -4.44221,-4.24397 -6.19902,-4.2479 -0.61354,-0.001 -2.00685,-0.75249 -3.09624,-1.66915 -2.19977,-1.85098 -3.9797,-2.14546 -4.51626,-0.74719 -0.20093,0.5236 -1.84234,1.11656 -3.81241,1.37723 -1.90277,0.25177 -4.73458,1.02114 -6.29291,1.7097 l -2.83334,1.25195 0.0102,1.53749 c 0.006,0.84561 0.24685,1.9101 0.53608,2.36553 l 0.52587,0.82804 2.60488,-1.32804 c 5.48346,-2.79562 5.64826,-3.84181 -2.31723,14.70967 -7.81833,18.20875 -6.7374,16.68561 -9.98764,14.07365 -3.2401,-2.60382 -3.10346,-2.61224 -4.04791,0.24946 -2.46994,7.48401 12.50613,10.86276 23.67574,5.34149 z m -8.06146,-4.69476 c 0.25566,-1.01864 2.06326,-5.63706 4.01688,-10.26315 l 3.55204,-8.41107 2.42849,0.0774 c 9.76456,0.3113 2.50005,17.19556 -8.59676,19.98068 l -1.8655,0.46821 z m 9.72813,-23.69639 c 0,-1.87467 3.44302,-7.31117 4.63028,-7.31117 2.86247,0 4.21636,3.02716 2.17866,4.87125 -2.16006,1.95483 -6.80894,3.62071 -6.80894,2.43992 z m -292,23.11329 c -29.72945,-13.12392 -51.90596,-34.533 -61.11554,-59.00062 -2.14827,-5.70741 -1.70507,-5.68521 1.95851,0.0981 20.70622,32.6867 67.32635,46.6369 115.24108,34.48371 13.84441,-3.51152 17.11049,-5.38244 5.88632,-3.37187 -21.57602,3.86487 -41.60657,1.68165 -57.63704,-6.28212 -6.50736,-3.23279 -14.30207,-8.60088 -10.66666,-7.34596 16.40738,5.66373 36.63293,6.92433 45,2.80473 l 3,-1.47708 v -1.66376 -1.66376 l -2.50592,-0.82097 c -1.37825,-0.45154 -6.47825,-0.9973 -11.33333,-1.21281 -40.02911,-1.77683 -73.35836,-30.24197 -73.34239,-62.6387 l 0.003,-6 1.52691,-4 c 3.62894,-9.50666 9.91265,-16.06943 21.31843,-22.26519 l 5,-2.71606 -2.13634,-0.009 c -13.78622,-0.0605 -30.92839,15.65667 -39.46967,36.18864 -4.43255,10.65522 -6.76593,9.42798 -4.42871,-2.32928 3.60515,-18.13558 15.4974,-31.15736 39.60104,-43.36235 l 8.89965,-4.50638 -2.23298,0.005 c -5.84268,0.0122 -16.7351,3.64731 -27.56632,9.19962 l -6,3.07573 -6.38398,6.35999 c -6.89764,6.87171 -10.30215,11.64863 -16.37672,22.9784 -5.19477,9.68886 -7.8682,9.94108 -5.21697,0.49219 7.60938,-27.11966 44.13072,-53.14582 81.77057,-58.27207 11.15236,-1.51887 2.46818,-3.00572 -10.57925,-1.81132 -48.34181,4.42537 -86.82342,32.09064 -96.97367,69.71651 l -1.41797,5.25628 -0.31215,11.33333 -0.31215,11.33333 1.43538,8 c 1.61303,8.99007 4.3015,17.59389 7.44156,23.81501 5.29049,10.48158 9.65994,11.99105 5.56932,1.92399 -3.01683,-7.42447 -4.46095,-23.00851 -3.06469,-33.07233 l 0.46246,-3.33333 0.4762,4.23641 c 0.71026,6.31872 5.4647,19.82672 10.57552,30.04644 6.85422,13.7059 9.8104,16.52961 5.87723,5.61389 -5.49292,-15.2445 -7.65928,-26.32211 -5.97705,-30.56341 l 0.79326,-2 2.49257,7 c 11.21869,31.506 38.35738,54.67336 77.72053,66.34732 7.55962,2.24196 8.84289,1.98979 3,-0.58953 z m -63.33333,-64.75779 c 0,-0.18333 0.15,-0.33333 0.33333,-0.33333 0.18333,0 0.33333,0.15 0.33333,0.33333 0,0.18333 -0.15,0.33333 -0.33333,0.33333 -0.18333,0 -0.33333,-0.15 -0.33333,-0.33333 z m 276.77757,61.18159 c 0.86799,-5.08453 8.69156,-23.68112 13.17104,-31.30755 l 2.03186,-3.45929 -1.74681,-1.37404 c -3.60068,-2.8323 -5.25146,-1.39188 -10.53578,9.19318 -5.10962,10.2351 -9.16162,20.73566 -9.2678,24.01704 l -0.0967,2.98982 2.28779,1.56147 c 2.91309,1.98827 3.58509,1.72625 4.15645,-1.62063 z m -17.44424,0.73087 c 0,-1.69469 3.94118,-12.79064 6.17817,-17.39395 l 2.01581,-4.14817 -0.791,-0.95309 c -3.6716,-4.42401 -7.24865,-0.42923 -12.12831,13.54469 l -2.17711,6.2346 2.1284,1.90173 c 2.36042,2.10903 4.77404,2.52066 4.77404,0.81419 z m 40.1611,0.004 c 3.50011,-1.80997 9.17223,-7.59001 9.17223,-9.34673 0,-1.95248 -1.38435,-2.02435 -3.06334,-0.15903 -2.04332,2.27009 -6.70633,5.243 -8.91715,5.68517 l -2.04345,0.40869 0.28962,-0.91906 c 0.1593,-0.50549 0.4704,-1.74406 0.69134,-2.7524 0.29041,-1.32532 0.81385,-1.83739 1.88902,-1.84797 6.41065,-0.0631 13.6003,-7.2326 11.44076,-11.40868 -4.73116,-9.14906 -19.52752,0.81784 -20.79489,14.00754 l -0.30277,3.15105 2.42863,2.13236 c 2.7898,2.44948 5.83183,2.79598 9.21,1.04906 z m 0.55092,-15.93792 c 2.41757,-3.36568 4.29581,-4.71712 3.52243,-2.53448 -0.55765,1.57379 -2.87104,4.14904 -4.52985,5.04261 -0.93224,0.50218 -0.64981,-0.20097 1.00742,-2.50813 z m -30.04535,-10.97877 c 1.59791,-1.59792 1.72899,-4.17577 0.28571,-5.61905 -2.43792,-2.43792 -6.95238,-0.17451 -6.95238,3.48572 0,3.51369 4.00478,4.79522 6.66667,2.13333 z m 108.6052,-41.76767 c 12.14037,-3.15481 21.23433,-12.31017 24.3745,-24.53906 l 1.0203,-3.9734 v -36.19327 -36.19327 h -10.66667 -10.66667 l -0.004,19.5 c -0.004,22.31575 -0.20993,23.62076 -4.35123,27.60943 l -2.88233,2.7761 -3.74479,0.77742 c -14.67546,3.04661 -17.67537,-2.2408 -17.68088,-31.16295 l -0.004,-19.5 h -10.71511 -10.7151 l 0.2369,21.83334 0.2369,21.83333 1.69723,4.41305 c 3.83133,9.962 8.64528,15.55944 16.88296,19.63072 l 5.22665,2.58315 6.51043,0.26149 6.51043,0.2615 3.43155,-1.13978 c 1.88735,-0.62688 4.76631,-2.15863 6.39769,-3.40388 l 2.96613,-2.26411 -0.0146,3.4956 c -0.0408,9.74299 -5.71598,14.07195 -18.31869,13.97329 l -7.33333,-0.0574 -5.84341,-1.71015 c -3.21387,-0.94058 -5.98887,-1.71015 -6.16667,-1.71015 -0.17779,0 -0.32326,4.77674 -0.32326,10.61497 v 10.61496 l 2.16667,0.69162 c 8.31978,2.65574 23.51456,3.1232 31.77187,0.97745 z m 90.06146,-31.29198 c 3.11667,-0.55133 6.19167,-1.15867 6.83334,-1.34965 l 1.16666,-0.34722 v -9.82333 -9.82334 l -5.83333,0.88312 c -18.27429,2.76656 -30.71224,0.6414 -34.1811,-5.84023 l -0.63015,-1.17745 4.15563,1.34548 4.15562,1.34548 7.33333,-0.005 7.33334,-0.005 5.33333,-1.72262 c 30.16221,-9.74213 19.86502,-43.7547 -13.24658,-43.7547 -21.93355,0 -37.107,14.85749 -37.07884,36.30673 0.0349,26.56395 21.4117,39.84829 54.65875,33.96695 z m -26.33333,-41.70098 c -5.44611,-0.9991 -5.46826,-1.02611 -2.96162,-3.6123 6.06076,-6.25312 23.1565,-5.5218 20.90016,0.89406 -1.08138,3.0749 -9.24843,4.31246 -17.93854,2.71824 z m -147.25834,41.83724 c 12.35783,-3.29062 21.66298,-12.82877 24.5779,-25.19331 l 0.99407,-4.21663 0.01,-20.16667 0.01,-20.16667 h -10.62379 -10.6238 l -0.20954,20.83334 -0.20953,20.83333 -1.8621,3.16779 c -2.56075,4.35635 -5.9854,6.07852 -12.1379,6.10386 l -4.66667,0.0192 -2.96772,-1.64543 c -2.1988,-1.2191 -3.4511,-2.572 -4.83334,-5.22156 l -1.86561,-3.57613 v -20.2572 -20.25721 h -10.66666 -10.66667 v 20.5266 20.5266 l 1.0203,3.9734 c 4.86667,18.9525 24.86352,30.00439 44.72136,24.71668 z M 370.91165,227.13858 v -24 h 8.66667 8.66666 v -9.66666 -9.66667 h -8.66666 -8.66667 l 0.004,-2.5 c 0.0147,-9.86677 6.81654,-15.30796 18.40453,-14.7228 l 4.92508,0.24871 v -10.1083 -10.10829 l -1.05452,-0.40466 c -14.46425,-5.55046 -37.9937,8.50741 -42.27815,25.25943 l -1.33399,5.21586 v 37.22669 37.22669 h 10.66666 10.66667 z m 52.66667,-25 v -49 h -10.66667 -10.66667 v 49 49 h 10.66667 10.66667 z m -276.81894,28.6933 c 23.36665,-47.37088 78.1809,-70.18506 130.4856,-54.30926 18.46015,5.60312 21.48464,6.81902 27.5,11.05551 3.40602,2.39878 1.14548,-0.35799 -2.82041,-3.43955 -53.89128,-41.87436 -136.82464,-15.52533 -158.33728,50.30587 -2.05193,6.27917 -2.50348,8.33858 -1.17541,5.3608 0.40883,-0.91667 2.36521,-4.95468 4.3475,-8.97337 z"
         id="path848196" /></g></g></svg>
